<?xml version="1.0" encoding="UTF-8" standalone="no"?>
<!-- Created with Inkscape (http://www.inkscape.org/) -->

<svg
   xmlns:dc="http://purl.org/dc/elements/1.1/"
   xmlns:cc="http://creativecommons.org/ns#"
   xmlns:rdf="http://www.w3.org/1999/02/22-rdf-syntax-ns#"
   xmlns:svg="http://www.w3.org/2000/svg"
   xmlns="http://www.w3.org/2000/svg"
   xmlns:sodipodi="http://sodipodi.sourceforge.net/DTD/sodipodi-0.dtd"
   xmlns:inkscape="http://www.inkscape.org/namespaces/inkscape"
   width="1024"
   height="1024"
   viewBox="0 0 270.93333 270.93334"
   version="1.1"
   id="svg8"
   inkscape:version="0.92.0 r15299"
   sodipodi:docname="DiamondLogoFixed.svg">
  <title
     id="title4626">Diamong Logo</title>
  <defs
     id="defs2">
    <inkscape:path-effect
       oposite_fuse="false"
       fuse_paths="false"
       discard_orig_path="false"
       mode="free"
       is_visible="true"
       id="path-effect4553"
       center_point="135.46672,122.08196"
       end_point="135.46672,120.14982"
       start_point="135.46672,124.0141"
       effect="mirror_symmetry" />
    <inkscape:path-effect
       oposite_fuse="false"
       fuse_paths="false"
       discard_orig_path="false"
       mode="free"
       is_visible="true"
       id="path-effect4542"
       center_point="135.46672,151.48414"
       end_point="135.46672,178.95419"
       start_point="135.46672,124.01408"
       effect="mirror_symmetry" />
    <inkscape:path-effect
       effect="mirror_symmetry"
       start_point="135.46672,124.01408"
       end_point="135.46672,169.25627"
       center_point="135.46672,146.63518"
       id="path-effect4538"
       is_visible="true"
       mode="free"
       discard_orig_path="false"
       fuse_paths="false"
       oposite_fuse="false" />
  </defs>
  <sodipodi:namedview
     id="base"
     pagecolor="#ffffff"
     bordercolor="#666666"
     borderopacity="1.0"
     inkscape:pageopacity="0.0"
     inkscape:pageshadow="2"
     inkscape:zoom="0.7"
     inkscape:cx="225.03344"
     inkscape:cy="684.23324"
     inkscape:document-units="mm"
     inkscape:current-layer="g4616"
     showgrid="false"
     units="px"
     inkscape:snap-global="true"
     inkscape:window-width="1440"
     inkscape:window-height="837"
     inkscape:window-x="-8"
     inkscape:window-y="-8"
     inkscape:window-maximized="1"
     scale-x="1"
     inkscape:pagecheckerboard="true" />
  <metadata
     id="metadata5">
    <rdf:RDF>
      <cc:Work
         rdf:about="">
        <dc:format>image/svg+xml</dc:format>
        <dc:type
           rdf:resource="http://purl.org/dc/dcmitype/StillImage" />
        <dc:title>Diamong Logo</dc:title>
      </cc:Work>
    </rdf:RDF>
  </metadata>
  <g
     inkscape:label="Layer 1"
     inkscape:groupmode="layer"
     id="layer1"
     transform="translate(0,-26.06665)">
    <path
       sodipodi:nodetypes="ccccc"
       inkscape:original-d="m 48.148051,124.0141 h 87.318679 v -3.86427 H 72.06965 Z"
       inkscape:path-effect="#path-effect4553"
       inkscape:connector-curvature="0"
       id="path4551"
       d="m 48.148051,124.0141 h 87.318679 v -3.86427 H 72.06965 Z m 174.637339,0 h -87.31868 v -3.86427 h 63.39708 z"
       style="fill:#755a39;fill-opacity:1;stroke:none;stroke-width:0.0721016" />
    <g
       id="g4616"
       transform="rotate(-8.0398623,56.10235,107.65381)">
      <path
         sodipodi:nodetypes="cccc"
         inkscape:connector-curvature="0"
         id="rect5915"
         d="M 98.360925,69.184861 115.64772,96.40239 H 80.706325 Z"
         style="opacity:1;fill:#9debff;fill-opacity:1;stroke-width:0.5201537" />
      <path
         style="opacity:1;fill:#87e6ff;fill-opacity:1;stroke-width:0.5201537"
         d="M 117.75897,96.40239 100.47218,69.184861 h 34.9414 z"
         id="path5918"
         inkscape:connector-curvature="0"
         sodipodi:nodetypes="cccc" />
      <path
         style="opacity:1;fill:#d7f9ff;fill-opacity:1;stroke-width:0.5201537"
         d="m 137.89264,69.184861 17.2868,27.217529 h -34.94141 z"
         id="path5920"
         inkscape:connector-curvature="0"
         sodipodi:nodetypes="cccc" />
      <path
         sodipodi:nodetypes="cccc"
         inkscape:connector-curvature="0"
         id="path5922"
         d="m 157.29069,96.40239 -17.2868,-27.217529 h 34.9414 z"
         style="opacity:1;fill:#87e6ff;fill-opacity:1;stroke-width:0.5201537" />
      <path
         sodipodi:nodetypes="cccc"
         inkscape:connector-curvature="0"
         id="path5924"
         d="M 177.42435,69.184861 194.71119,96.40239 H 159.76974 Z"
         style="opacity:1;fill:#45ddfd;fill-opacity:1;stroke-width:0.5201537" />
      <path
         style="opacity:1;fill:#4bc8ff;fill-opacity:1;stroke-width:0.5201537"
         d="m 139.8656,167.31114 18.89274,-68.997484 h 35.95285 z"
         id="path5928"
         inkscape:connector-curvature="0"
         sodipodi:nodetypes="cccc" />
      <path
         sodipodi:nodetypes="cccc"
         inkscape:connector-curvature="0"
         id="path5930"
         d="M 137.52489,167.09306 119.13468,98.313656 h 37.51603 z"
         style="opacity:1;fill:#9debff;fill-opacity:1;stroke:none;stroke-width:4.26956606;stroke-miterlimit:4;stroke-dasharray:none;stroke-opacity:1;paint-order:stroke fill markers" />
      <path
         style="opacity:1;fill:#d7f8ff;fill-opacity:1;stroke-width:0.5201537"
         d="M 135.50922,167.18501 80.706325,98.313656 h 36.504625 z"
         id="path5932"
         inkscape:connector-curvature="0"
         sodipodi:nodetypes="cccc" />
      <text
         xml:space="preserve"
         style="font-style:normal;font-variant:normal;font-weight:normal;font-stretch:normal;font-size:10.58333302px;line-height:6.61458302px;font-family:Megrim;-inkscape-font-specification:Megrim;text-align:center;letter-spacing:0px;word-spacing:0px;text-anchor:middle;fill:#00ffd2;fill-opacity:1;stroke:none;stroke-width:0.26458332;"
         x="145.46732"
         y="211.12163"
         id="text4620"
         transform="rotate(8.0398623)"><tspan
           sodipodi:role="line"
           id="tspan4618"
           x="145.46732"
           y="217.60391"
           style="stroke-width:0.26458332;fill:#00ffd2;fill-opacity:1;" /></text>
    </g>
    <path
       inkscape:connector-curvature="0"
       id="path4523"
       d="M 48.148051,197.24295 V 124.0141 h 87.318609 87.31862 v 73.22885 73.22887 H 135.46666 48.148051 Z"
       style="fill:#ffba64;fill-opacity:1;stroke:none;stroke-width:0.83513618" />
    <path
       style="fill:#000000;fill-opacity:0.08839782;stroke:none;stroke-width:1.12908602"
       d="m 222.78537,206.94217 -1.05433,-1.05433 -31.48165,31.48166 -31.48166,31.48165 1.62085,1.62085 h 62.39679 z"
       id="path4529"
       inkscape:connector-curvature="0" />
    <path
       sodipodi:nodetypes="ccccc"
       inkscape:original-d="m 48.148051,124.0141 h 87.318679 v 54.94012 H 72.06965 Z"
       inkscape:path-effect="#path-effect4542"
       inkscape:connector-curvature="0"
       id="path4540"
       d="m 48.148051,124.0141 h 87.318679 v 54.94012 H 72.06965 Z m 174.637339,0 h -87.31868 v 54.94012 h 63.39708 z"
       style="fill:#000000;fill-opacity:0.25966851;stroke:none;stroke-width:0.27186662" />
    <path
       style="fill:#ffd097;fill-opacity:1;stroke:none;stroke-width:0.24670775"
       d="m 48.148051,124.0141 h 87.318679 v 45.24217 H 72.06965 Z m 174.637339,0 h -87.31868 v 45.24217 h 63.39708 z"
       id="rect4531"
       inkscape:connector-curvature="0"
       inkscape:path-effect="#path-effect4538"
       inkscape:original-d="m 48.148051,124.0141 h 87.318679 v 45.24217 H 72.06965 Z"
       sodipodi:nodetypes="ccccc" />
    <path
       style="fill:#9e7748;fill-opacity:1;stroke:none;stroke-width:0.32001585"
       d="m 222.78528,124.0141 20.68895,53.66196 -20.68895,-7.75834 z"
       id="rect4546"
       inkscape:connector-curvature="0"
       sodipodi:nodetypes="cccc" />
    <path
       sodipodi:nodetypes="cccc"
       inkscape:connector-curvature="0"
       id="path4549"
       d="M 48.148051,124.0141 27.4591,177.67606 48.148051,169.91772 Z"
       style="fill:#9e7748;fill-opacity:1;stroke:none;stroke-width:0.32001585" />
    <g
       aria-label="diamond"
       style="font-style:normal;font-variant:normal;font-weight:normal;font-stretch:normal;font-size:10.58333302px;line-height:13.60999966px;font-family:Megrim;-inkscape-font-specification:Megrim;text-align:center;letter-spacing:0px;word-spacing:0px;text-anchor:middle;fill:#000000;fill-opacity:0.56279069;stroke:none;stroke-width:0.26458332"
       id="text4624">
      <path
         d="m 94.249811,198.61497 v 19.27324 H 91.397272 L 91.22364,216.2263 V 198.61497 Z M 81.69864,210.69485 q 0,-1.93476 0.520898,-3.24941 0.545703,-1.31465 1.389063,-2.1332 0.843359,-0.81856 1.860351,-1.16582 1.041797,-0.37207 2.033985,-0.37207 0.768945,0 1.463476,0.17363 0.694531,0.17363 1.240234,0.49609 v 2.6293 q -0.421679,-0.44648 -0.942578,-0.71934 -0.520898,-0.27285 -1.16582,-0.27285 -0.768945,0 -1.364258,0.39688 -0.595312,0.37207 -1.016992,1.04179 -0.396875,0.66973 -0.620117,1.5379 -0.223242,0.86816 -0.223242,1.86035 0,0.99218 0.248047,1.86035 0.248046,0.84336 0.669726,1.48828 0.42168,0.64492 1.016992,1.01699 0.620117,0.37207 1.339453,0.37207 1.21543,0 2.058789,-0.96738 v 2.57969 q -0.595312,0.32246 -1.389062,0.5457 -0.768945,0.19844 -1.637109,0.19844 -0.992188,0 -1.959571,-0.34727 -0.942578,-0.37207 -1.686718,-1.19062 -0.942579,-1.0666 -1.389063,-2.6293 -0.446484,-1.5875 -0.446484,-3.1502 z"
         style="font-style:normal;font-variant:normal;font-weight:normal;font-stretch:normal;font-size:25.39999962px;line-height:21.61000061px;font-family:'Allerta Stencil';-inkscape-font-specification:'Allerta Stencil';fill:#000000;fill-opacity:0.56279069;stroke-width:0.26458332"
         id="path4515" />
      <path
         d="m 101.51758,217.88821 h -3.026167 v -13.98984 h 3.026167 z m 0.27286,-18.45468 q 0,0.74414 -0.5209,1.26504 -0.5209,0.49609 -1.26504,0.49609 -0.744142,0 -1.26504,-0.5209 -0.496094,-0.5209 -0.496094,-1.24023 0,-0.74414 0.520899,-1.26504 0.520898,-0.5209 1.240235,-0.5209 0.74414,0 1.26504,0.5209 0.5209,0.5209 0.5209,1.26504 z"
         style="font-style:normal;font-variant:normal;font-weight:normal;font-stretch:normal;font-size:25.39999962px;line-height:21.61000061px;font-family:'Allerta Stencil';-inkscape-font-specification:'Allerta Stencil';fill:#000000;fill-opacity:0.56279069;stroke-width:0.26458332"
         id="path4517" />
      <path
         d="m 108.19005,213.67142 q 0,1.11621 0.44648,1.66191 0.47129,0.5457 1.33945,0.64492 v 2.00918 q -0.0992,0.0248 -0.32246,0.0248 -0.84336,0 -1.63711,-0.22324 -0.76894,-0.22325 -1.36426,-0.71934 -0.59531,-0.49609 -0.94257,-1.31465 -0.32246,-0.81855 -0.32246,-2.00918 0,-1.14101 0.47128,-1.95957 0.4961,-0.84336 1.24024,-1.36426 0.76894,-0.5457 1.73633,-0.79375 0.96738,-0.27285 1.95957,-0.27285 h 1.0914 v 1.76113 h -0.5457 q -0.49609,0 -1.0418,0.0992 -0.5457,0.0992 -1.01699,0.37207 -0.47129,0.27286 -0.79375,0.79375 -0.29765,0.4961 -0.29765,1.28985 z m 7.71425,0.0744 q 0,0.19844 0.0248,0.59531 0.0248,0.37207 0.0992,0.76895 0.0744,0.39687 0.22324,0.71934 0.17363,0.32246 0.44648,0.42167 l -0.79375,1.66192 q -0.32246,0 -0.69453,-0.14883 -0.34726,-0.14883 -0.69453,-0.42168 -0.32246,-0.27285 -0.57051,-0.59531 -0.22324,-0.34727 -0.34726,-0.74414 -0.24805,0.62012 -0.99219,1.11621 -0.71934,0.47129 -1.6123,0.69453 v -1.88516 q 0.59531,-0.12402 1.0666,-0.47129 0.49609,-0.37207 0.84336,-0.86816 v -5.23379 q 0,-1.21543 -0.12403,-1.93476 -0.12402,-0.71934 -0.42168,-1.0418 -0.29765,-0.34727 -0.74414,-0.42168 -0.42168,-0.0992 -1.01699,-0.0992 -0.5457,0 -1.0418,0.14883 -0.47129,0.12402 -0.89297,0.32246 -0.39687,0.17363 -0.71933,0.39687 -0.29766,0.22325 -0.44649,0.34727 l -1.11621,-1.71152 q 0.24805,-0.27285 0.74414,-0.54571 0.4961,-0.29765 1.14102,-0.52089 0.64492,-0.22325 1.38906,-0.34727 0.76895,-0.14883 1.5875,-0.14883 0.74414,0 1.43867,0.14883 0.71934,0.14883 1.28985,0.49609 0.59531,0.34727 1.01699,0.94258 0.44648,0.57051 0.62012,1.43867 0.17363,0.86817 0.22324,1.76114 0.0744,0.86816 0.0744,1.73632 v 3.22461 z"
         style="font-style:normal;font-variant:normal;font-weight:normal;font-stretch:normal;font-size:25.39999962px;line-height:21.61000061px;font-family:'Allerta Stencil';-inkscape-font-specification:'Allerta Stencil';fill:#000000;fill-opacity:0.56279069;stroke-width:0.26458332"
         id="path4519" />
      <path
         d="m 123.34571,203.89837 0.32246,1.43867 v 12.55117 H 120.642 v -13.98984 z m 11.70781,-0.14883 q 0.84336,0 1.5875,0.34727 0.74414,0.32246 1.28985,0.94258 0.57051,0.62011 0.86816,1.48828 0.32246,0.84336 0.32246,1.83554 v 9.525 h -2.97656 v -7.61503 q 0,-0.84336 -0.0248,-1.5875 0,-0.76895 -0.14883,-1.36426 -0.14883,-0.59532 -0.4961,-0.91778 -0.32246,-0.34726 -1.01699,-0.34726 -0.17363,0 -0.74414,0.0744 -0.57051,0.0744 -1.31465,0.42168 v -1.95957 q 0.66973,-0.39687 1.36426,-0.62012 0.69453,-0.22324 1.28984,-0.22324 z m -4.29121,1.90996 q 0.29766,0.44649 0.42168,0.96739 0.14883,0.49609 0.17364,1.04179 0.0496,0.54571 0.0248,1.14102 0,0.57051 0,1.21543 v 7.86308 h -3.00137 v -7.61503 q 0,-0.84336 0,-1.5875 0,-0.76895 -0.14883,-1.36426 -0.14882,-0.59532 -0.49609,-0.91778 -0.34726,-0.34726 -1.01699,-0.34726 -0.29766,0 -0.89297,0.12402 -0.57051,0.0992 -1.14102,0.37207 v -1.95957 q 0.59532,-0.34726 1.26504,-0.57051 0.69453,-0.22324 1.36426,-0.22324 1.14102,0 1.90996,0.47129 0.79375,0.47129 1.53789,1.38906 z"
         style="font-style:normal;font-variant:normal;font-weight:normal;font-stretch:normal;font-size:25.39999962px;line-height:21.61000061px;font-family:'Allerta Stencil';-inkscape-font-specification:'Allerta Stencil';fill:#000000;fill-opacity:0.56279069;stroke-width:0.26458332"
         id="path4521" />
      <path
         d="m 149.98594,203.82396 q 1.36426,0.0744 2.48047,0.66972 1.11621,0.57051 1.86035,1.53789 0.76895,0.94258 1.19063,2.20762 0.42168,1.26504 0.42168,2.70371 0,1.43867 -0.44649,2.70371 -0.42168,1.24024 -1.19062,2.18282 -0.76895,0.91777 -1.88516,1.48828 -1.11621,0.5705 -2.43086,0.66972 v -2.38125 q 1.24024,-0.27285 2.00918,-1.56269 0.79375,-1.28985 0.79375,-3.10059 0,-0.91777 -0.19844,-1.71152 -0.17363,-0.81856 -0.5457,-1.46348 -0.37207,-0.64492 -0.89297,-1.0666 -0.5209,-0.42168 -1.16582,-0.5457 z m -6.92051,7.06933 q 0,-1.43867 0.42168,-2.6789 0.42168,-1.24024 1.19063,-2.15801 0.79375,-0.94258 1.88515,-1.51309 1.09141,-0.57051 2.40606,-0.69453 v 2.30684 q -1.24024,0.27285 -1.98438,1.56269 -0.74414,1.28985 -0.74414,3.10059 0,0.91777 0.17364,1.73633 0.19843,0.81855 0.5457,1.46347 0.34727,0.64492 0.84336,1.0666 0.5209,0.42168 1.16582,0.5209 v 2.38125 q -1.36426,-0.0992 -2.45566,-0.66972 -1.09141,-0.59532 -1.86036,-1.53789 -0.76894,-0.94258 -1.19062,-2.20762 -0.39688,-1.26504 -0.39688,-2.67891 z"
         style="font-style:normal;font-variant:normal;font-weight:normal;font-stretch:normal;font-size:25.39999962px;line-height:21.61000061px;font-family:'Allerta Stencil';-inkscape-font-specification:'Allerta Stencil';fill:#000000;fill-opacity:0.56279069;stroke-width:0.26458332"
         id="path4524" />
      <path
         d="m 162.51231,203.89837 0.32246,1.41387 v 12.57597 h -3.00137 v -13.98984 z m 7.73906,1.53789 q 0.42168,0.42168 0.64492,0.99219 0.24805,0.5457 0.34727,1.16582 0.12402,0.59531 0.14882,1.21543 0.0248,0.62012 0.0248,1.21543 v 7.36699 0.49609 h -3.02617 v -7.61503 q 0,-0.84336 -0.0744,-1.61231 -0.0744,-0.76894 -0.34726,-1.36426 -0.27285,-0.59531 -0.74414,-0.91777 -0.47129,-0.34727 -1.31465,-0.34727 -0.34727,0 -0.94258,0.12403 -0.57051,0.0992 -1.11621,0.34726 v -1.90996 q 0.66973,-0.34726 1.43867,-0.59531 0.79375,-0.24805 1.53789,-0.24805 1.11621,0 1.88516,0.47129 0.76894,0.44649 1.53789,1.21543 z"
         style="font-style:normal;font-variant:normal;font-weight:normal;font-stretch:normal;font-size:25.39999962px;line-height:21.61000061px;font-family:'Allerta Stencil';-inkscape-font-specification:'Allerta Stencil';fill:#000000;fill-opacity:0.56279069;stroke-width:0.26458332"
         id="path4526" />
      <path
         d="m 187.21778,198.61497 v 19.27324 h -2.85254 l -0.17364,-1.66191 v -17.61133 z m -12.55118,12.07988 q 0,-1.93476 0.5209,-3.24941 0.54571,-1.31465 1.38906,-2.1332 0.84336,-0.81856 1.86036,-1.16582 1.04179,-0.37207 2.03398,-0.37207 0.76895,0 1.46348,0.17363 0.69453,0.17363 1.24023,0.49609 v 2.6293 q -0.42168,-0.44648 -0.94258,-0.71934 -0.52089,-0.27285 -1.16582,-0.27285 -0.76894,0 -1.36425,0.39688 -0.59532,0.37207 -1.017,1.04179 -0.39687,0.66973 -0.62011,1.5379 -0.22325,0.86816 -0.22325,1.86035 0,0.99218 0.24805,1.86035 0.24805,0.84336 0.66973,1.48828 0.42168,0.64492 1.01699,1.01699 0.62012,0.37207 1.33945,0.37207 1.21543,0 2.05879,-0.96738 v 2.57969 q -0.59531,0.32246 -1.38906,0.5457 -0.76895,0.19844 -1.63711,0.19844 -0.99219,0 -1.95957,-0.34727 -0.94258,-0.37207 -1.68672,-1.19062 -0.94258,-1.0666 -1.38906,-2.6293 -0.44649,-1.5875 -0.44649,-3.1502 z"
         style="font-style:normal;font-variant:normal;font-weight:normal;font-stretch:normal;font-size:25.39999962px;line-height:21.61000061px;font-family:'Allerta Stencil';-inkscape-font-specification:'Allerta Stencil';fill:#000000;fill-opacity:0.56279069;stroke-width:0.26458332"
         id="path4528" />
    </g>
  </g>
</svg>
